<svg class="diagram-root" style="background: #f5f6f6" xmlns="http://www.w3.org/2000/svg" xmlns:xlink="http://www.w3.org/1999/xlink"><style>.diagram-root { font-family: "Helvetica Neue", sans-serif; font-size: 12px; } .t { overflow: visible; } .t-bg { y: 40; fill: #fff;   } .th { fill: #005aa0;   } .tht { fill: #fff; font-size: 14px;  } .tf { fill: #323c46; overflow: visible; } .tf.pk { fill: #005aa0; font-weight: bold; } .tf.fk { font-weight: bold; } .ty { fill: #adb1b5; font-weight: normal; text-anchor: end; } .r { fill: transparent; stroke: #c3c3c3; stroke-width: 1; } .l { stroke: 1; } .i { fill: #c2c7ce; stroke: #c2c7ce; } .i.ix { fill: #afb3b6; stroke: #000; } .fa { fill: transparent; overflow: visible; } .fa .bg.hover { fill: #f7f7f7; } .c { cy: 12; r: 4; stroke: #d2d2dc; fill: #d2d2dc; } .hr { fill: transparent; stroke: #323c46; stroke-opacity: 0.035; stroke-width: 13; } .dc { stroke: #fa5a3c; fill: #fa5a3c; } .x { stroke: white; stroke-width: 1; } .hl .th { fill: #1b9bff; } .hl .tht {  } .fhl .bg { fill: #e7f4ff; } .fhls .bg {  } .r.hl { stroke: #1b9bff; } .dim { opacity: 0.25; }</style><g class="drawing-wrapper" transform="translate(541, 141) scale(1,1)"><g class="rs"><path d="M 44.49 0 m -1, 0 a 1,1 0 1,0 2,0 a 1,1 0 1,0 -2,0 M 44.49 0 m -0.5, 0 a 0.5,0.5 0 1,0 1,0 a 0.5,0.5 0 1,0 -1,0  M44.49 0 L44.49 0 56.49 0 M 44.49 6 m -1, 0 a 1,1 0 1,0 2,0 a 1,1 0 1,0 -2,0 M 44.49 6 m -0.5, 0 a 0.5,0.5 0 1,0 1,0 a 0.5,0.5 0 1,0 -1,0  M44.49 6 L44.49 6 51.49 0 44.49 -6 M 44.49 -6 m -1, 0 a 1,1 0 1,0 2,0 a 1,1 0 1,0 -2,0 M 44.49 -6 m -0.5, 0 a 0.5,0.5 0 1,0 1,0 a 0.5,0.5 0 1,0 -1,0  M56.49 0 Q 74.87 0, 93.25 -27 T 130 -54 M 142 -54 m -1, 0 a 1,1 0 1,0 2,0 a 1,1 0 1,0 -2,0 M 142 -54 m -0.5, 0 a 0.5,0.5 0 1,0 1,0 a 0.5,0.5 0 1,0 -1,0  M142 -54 L142 -54 130 -54 M136 -48 L136 -48 136 -60" id="h2900154149" class="r"></path><path d="M -222 25 m -1, 0 a 1,1 0 1,0 2,0 a 1,1 0 1,0 -2,0 M -222 25 m -0.5, 0 a 0.5,0.5 0 1,0 1,0 a 0.5,0.5 0 1,0 -1,0  M-222 25 L-222 25 -234 25 M -222 31 m -1, 0 a 1,1 0 1,0 2,0 a 1,1 0 1,0 -2,0 M -222 31 m -0.5, 0 a 0.5,0.5 0 1,0 1,0 a 0.5,0.5 0 1,0 -1,0  M-222 31 L-222 31 -229 25 -222 19 M -222 19 m -1, 0 a 1,1 0 1,0 2,0 a 1,1 0 1,0 -2,0 M -222 19 m -0.5, 0 a 0.5,0.5 0 1,0 1,0 a 0.5,0.5 0 1,0 -1,0  M-234 25 Q -261.52 25, -289.05 -4.5 T -344.1 -34 M -356.1 -34 m -1, 0 a 1,1 0 1,0 2,0 a 1,1 0 1,0 -2,0 M -356.1 -34 m -0.5, 0 a 0.5,0.5 0 1,0 1,0 a 0.5,0.5 0 1,0 -1,0  M-356.1 -34 L-356.1 -34 -344.1 -34 M-350.1 -28 L-350.1 -28 -350.1 -40" id="h3013429267" class="r"></path><path d="M -222 50 m -1, 0 a 1,1 0 1,0 2,0 a 1,1 0 1,0 -2,0 M -222 50 m -0.5, 0 a 0.5,0.5 0 1,0 1,0 a 0.5,0.5 0 1,0 -1,0  M-222 50 L-222 50 -234 50 M -222 56 m -1, 0 a 1,1 0 1,0 2,0 a 1,1 0 1,0 -2,0 M -222 56 m -0.5, 0 a 0.5,0.5 0 1,0 1,0 a 0.5,0.5 0 1,0 -1,0  M-222 56 L-222 56 -229 50 -222 44 M -222 44 m -1, 0 a 1,1 0 1,0 2,0 a 1,1 0 1,0 -2,0 M -222 44 m -0.5, 0 a 0.5,0.5 0 1,0 1,0 a 0.5,0.5 0 1,0 -1,0  M-234 50 Q -261.52 50, -289.05 8 T -344.1 -34 M -356.1 -34 m -1, 0 a 1,1 0 1,0 2,0 a 1,1 0 1,0 -2,0 M -356.1 -34 m -0.5, 0 a 0.5,0.5 0 1,0 1,0 a 0.5,0.5 0 1,0 -1,0  M-356.1 -34 L-356.1 -34 -344.1 -34 M-350.1 -28 L-350.1 -28 -350.1 -40" id="h1049353153" class="r"></path><path d="M 44.49 75 m -1, 0 a 1,1 0 1,0 2,0 a 1,1 0 1,0 -2,0 M 44.49 75 m -0.5, 0 a 0.5,0.5 0 1,0 1,0 a 0.5,0.5 0 1,0 -1,0  M44.49 75 L44.49 75 56.49 75 M 44.49 81 m -1, 0 a 1,1 0 1,0 2,0 a 1,1 0 1,0 -2,0 M 44.49 81 m -0.5, 0 a 0.5,0.5 0 1,0 1,0 a 0.5,0.5 0 1,0 -1,0  M44.49 81 L44.49 81 51.49 75 44.49 69 M 44.49 69 m -1, 0 a 1,1 0 1,0 2,0 a 1,1 0 1,0 -2,0 M 44.49 69 m -0.5, 0 a 0.5,0.5 0 1,0 1,0 a 0.5,0.5 0 1,0 -1,0  M56.49 75 Q 75.87 75, 95.25 71 T 134 67 M 146 67 m -1, 0 a 1,1 0 1,0 2,0 a 1,1 0 1,0 -2,0 M 146 67 m -0.5, 0 a 0.5,0.5 0 1,0 1,0 a 0.5,0.5 0 1,0 -1,0  M146 67 L146 67 134 67 M140 73 L140 73 140 61" id="h2571640586" class="r"></path></g><g class="hrs"></g><g class="ts"><svg width="286.49" height="100" x="146" y="10" id="h2850656253" class="t"><rect height="40" width="286.49" class="th"></rect><text x="13" y="25" class="tht">cancellation_code</text><rect height="60" width="286.49" class="t-bg"></rect><text x="13" y="61" class="tf pk">CANCELLATION_REASON_CODE<tspan x="273.49" class="ty">TEXT</tspan></text><path d="M7,14A2,2 0 0,1 5,12A2,2 0 0,1 7,10A2,2 0 0,1 9,12A2,2 0 0,1 7,14M12.65,10C11.83,7.67 9.61,6 7, 6A6, 6 0 0, 0 1, 12A6, 6 0 0, 0 7, 18C9.61, 18 11.83, 16.33 12.65, 14H17V18H21V14H23V10H12.65Z" class="i pk" transform="translate(222.82203125, 48) scale(0.65)"></path><text x="13" y="86" class="tf">CANCELLATION_REASON<tspan x="273.49" class="ty">TEXT</tspan></text></svg><svg width="162.9" height="225" x="-519" y="-91" id="h2255944857" class="t"><rect height="40" width="162.9" class="th"></rect><text x="13" y="25" class="tht">airports</text><rect height="185" width="162.9" class="t-bg"></rect><text x="13" y="61" class="tf pk">IATA_CODE<tspan x="149.9" class="ty">TEXT</tspan></text><path d="M7,14A2,2 0 0,1 5,12A2,2 0 0,1 7,10A2,2 0 0,1 9,12A2,2 0 0,1 7,14M12.65,10C11.83,7.67 9.61,6 7, 6A6, 6 0 0, 0 1, 12A6, 6 0 0, 0 7, 18C9.61, 18 11.83, 16.33 12.65, 14H17V18H21V14H23V10H12.65Z" class="i pk" transform="translate(99.23203125, 48) scale(0.65)"></path><text x="13" y="86" class="tf">AIRPORT<tspan x="149.9" class="ty">TEXT</tspan></text><text x="13" y="111" class="tf">CITY<tspan x="149.9" class="ty">TEXT</tspan></text><text x="13" y="136" class="tf">STATE<tspan x="149.9" class="ty">TEXT</tspan></text><text x="13" y="161" class="tf">COUNTRY<tspan x="149.9" class="ty">TEXT</tspan></text><text x="13" y="186" class="tf">LATITUDE<tspan x="149.9" class="ty">INT?</tspan></text><text x="13" y="211" class="tf">LONGITUDE<tspan x="149.9" class="ty">INT?</tspan></text></svg><svg width="162.9" height="100" x="142" y="-111" id="h1701999969" class="t"><rect height="40" width="162.9" class="th"></rect><text x="13" y="25" class="tht">airlines</text><rect height="60" width="162.9" class="t-bg"></rect><text x="13" y="61" class="tf pk">IATA_CODE<tspan x="149.9" class="ty">TEXT</tspan></text><path d="M7,14A2,2 0 0,1 5,12A2,2 0 0,1 7,10A2,2 0 0,1 9,12A2,2 0 0,1 7,14M12.65,10C11.83,7.67 9.61,6 7, 6A6, 6 0 0, 0 1, 12A6, 6 0 0, 0 7, 18C9.61, 18 11.83, 16.33 12.65, 14H17V18H21V14H23V10H12.65Z" class="i pk" transform="translate(99.23203125, 48) scale(0.65)"></path><text x="13" y="86" class="tf">AIRLINE<tspan x="149.9" class="ty">TEXT</tspan></text></svg><svg width="266.49" height="200" x="-222" y="-107" id="h3626662165" class="t"><rect height="40" width="266.49" class="th"></rect><text x="13" y="25" class="tht">cancelled_flights</text><rect height="160" width="266.49" class="t-bg"></rect><text x="13" y="61" class="tf pk">ID<tspan x="253.49" class="ty">TEXT</tspan></text><path d="M7,14A2,2 0 0,1 5,12A2,2 0 0,1 7,10A2,2 0 0,1 9,12A2,2 0 0,1 7,14M12.65,10C11.83,7.67 9.61,6 7, 6A6, 6 0 0, 0 1, 12A6, 6 0 0, 0 7, 18C9.61, 18 11.83, 16.33 12.65, 14H17V18H21V14H23V10H12.65Z" class="i pk" transform="translate(202.82203125, 48) scale(0.65)"></path><text x="13" y="86" class="tf">DATE<tspan x="253.49" class="ty">TEXT</tspan></text><text x="13" y="111" class="tf fk">AIRLINE_CODE<tspan x="253.49" class="ty">TEXT</tspan></text><text x="13" y="136" class="tf fk">ORIGIN_AIRPORT_CODE<tspan x="253.49" class="ty">TEXT</tspan></text><text x="13" y="161" class="tf fk">DESTINATION_AIRPORT_CODE<tspan x="253.49" class="ty">TEXT</tspan></text><text x="13" y="186" class="tf fk">CANCELLATION_REASON_CODE<tspan x="253.49" class="ty">TEXT</tspan></text></svg></g></g><text class="qdbd-link" x="10" y="20">www.quickdatabasediagrams.com</text></svg>